<svg width="323" height="20" viewBox="0 0 323 20" fill="none" xmlns="http://www.w3.org/2000/svg">
<path d="M25.194 0.889648H5.82202V7.51062H25.194V0.889648Z" fill="#8B5CF6"/>
<path opacity="0.4" d="M25.194 0.889648H5.82202V7.51062H25.194V0.889648Z" fill="black"/>
<path d="M43.377 0.889648H29.876V7.51062H43.377V0.889648Z" fill="#8B5CF6"/>
<path opacity="0.4" d="M43.377 0.889648H29.876V7.51062H43.377V0.889648Z" fill="black"/>
<path d="M61.617 0.889648H48.116V7.51062H61.617V0.889648Z" fill="#8B5CF6"/>
<path opacity="0.4" d="M61.617 0.889648H48.116V7.51062H61.617V0.889648Z" fill="black"/>
<path d="M79.857 0.889648H66.356V7.51062H79.857V0.889648Z" fill="#8B5CF6"/>
<path opacity="0.4" d="M79.857 0.889648H66.356V7.51062H79.857V0.889648Z" fill="black"/>
<path d="M166.836 0.889648H156.462V7.51062H166.836V0.889648Z" fill="#8B5CF6"/>
<path opacity="0.4" d="M166.836 0.889648H156.462V7.51062H166.836V0.889648Z" fill="black"/>
<path d="M182.186 0.889648H171.812V7.51062H182.186V0.889648Z" fill="#8B5CF6"/>
<path opacity="0.4" d="M182.186 0.889648H171.812V7.51062H182.186V0.889648Z" fill="black"/>
<path d="M197.536 0.889648H187.162V7.51062H197.536V0.889648Z" fill="#8B5CF6"/>
<path opacity="0.4" d="M197.536 0.889648H187.162V7.51062H197.536V0.889648Z" fill="black"/>
<path d="M212.885 0.889648H202.511V7.51062H212.885V0.889648Z" fill="#8B5CF6"/>
<path opacity="0.4" d="M212.885 0.889648H202.511V7.51062H212.885V0.889648Z" fill="black"/>
<path d="M254.477 0.889648H244.103V7.51062H254.477V0.889648Z" fill="#8B5CF6"/>
<path opacity="0.4" d="M254.477 0.889648H244.103V7.51062H254.477V0.889648Z" fill="black"/>
<path d="M269.608 0.889648H259.234V7.51062H269.608V0.889648Z" fill="#8B5CF6"/>
<path opacity="0.4" d="M269.608 0.889648H259.234V7.51062H269.608V0.889648Z" fill="black"/>
<path d="M284.739 0.889648H274.365V7.51062H284.739V0.889648Z" fill="#8B5CF6"/>
<path opacity="0.4" d="M284.739 0.889648H274.365V7.51062H284.739V0.889648Z" fill="black"/>
<path d="M317.552 0.889648H289.496V7.51062H317.552V0.889648Z" fill="#8B5CF6"/>
<path opacity="0.4" d="M317.552 0.889648H289.496V7.51062H317.552V0.889648Z" fill="black"/>
<path d="M238.063 0.889648H217.861V7.51062H238.063V0.889648Z" fill="#8B5CF6"/>
<path opacity="0.4" d="M238.063 0.889648H217.861V7.51062H238.063V0.889648Z" fill="black"/>
<path d="M150.994 0.889648H84.5959V7.51062H150.994V0.889648Z" fill="#8B5CF6"/>
<path opacity="0.4" d="M150.994 0.889648H84.5959V7.51062H150.994V0.889648Z" fill="black"/>
<path d="M322.895 6.25684H0.677002V19.9589H322.895V6.25684Z" fill="#8B5CF6"/>
<path opacity="0.3" d="M322.895 6.25684H0.677002V19.9589H322.895V6.25684Z" fill="black"/>
<path opacity="0.2" d="M322.158 15.2471H1.77808V15.9971H322.158V15.2471Z" fill="black"/>
</svg>
