<svg width="158" height="235" viewBox="0 0 158 235" fill="none" xmlns="http://www.w3.org/2000/svg">
<path d="M73.5551 185.326C73.5251 184.381 70.3441 90.4943 55.0721 75.6443C40.2191 61.2053 23.1711 75.1073 22.4551 75.7053L20.9241 73.8703C21.1171 73.7073 40.3561 58.0033 56.7401 73.9313C72.6971 89.4483 75.8191 181.346 75.9431 185.251L73.5551 185.326Z" fill="#E0E0E0"/>
<path d="M74.8662 203.777C74.7562 202.655 64.4292 91.0659 105.181 44.2969L106.983 45.8649C66.9072 91.8589 77.1382 202.433 77.2452 203.544L74.8672 203.778L74.8662 203.777Z" fill="#E0E0E0"/>
<path d="M73.3591 191.974L70.9741 191.815C71.0581 190.55 78.9501 64.9542 49.0571 37.4602L50.6751 35.7002C81.4051 63.9662 73.7021 186.759 73.3591 191.973V191.974Z" fill="#E0E0E0"/>
<path d="M77.2501 191.904L74.8601 191.885C74.8891 188.426 75.8461 107.051 98.9611 93.8041C104.099 90.8561 109.131 90.3651 113.917 92.3451C127.894 98.1261 134.82 123.002 135.109 124.057L132.803 124.687C132.735 124.439 125.896 99.8841 113.001 94.5531C108.936 92.8751 104.614 93.3181 100.15 95.8761C78.2161 108.446 77.2581 191.07 77.2511 191.903L77.2501 191.904Z" fill="#E0E0E0"/>
<path d="M68.2491 191.962L65.8641 191.827C65.9001 191.185 69.3501 127.521 52.1691 105.09C48.0061 99.6566 43.4871 97.0656 38.7121 97.3986C27.4551 98.1856 18.0141 114.66 17.9201 114.826L15.8381 113.65C16.2481 112.926 26.0011 95.8936 38.5411 95.0156C44.1511 94.6166 49.3811 97.5226 54.0651 103.639C71.7861 126.773 68.4001 189.314 68.2471 191.963L68.2491 191.962Z" fill="#E0E0E0"/>
<path d="M72.0162 200.621C71.5482 194.445 60.7842 49.0789 79.7242 23.4639L81.6452 24.8829C63.2302 49.7909 74.2872 198.936 74.4002 200.439L72.0162 200.621Z" fill="#E0E0E0"/>
<path d="M119.068 107.078C119.068 107.078 107.706 111.266 111.084 121.155C114.462 131.044 150.389 147.319 150.389 147.319C150.389 147.319 165.436 133.527 151.618 111.098C137.799 88.6679 119.375 100.001 119.068 107.078Z" fill="#EBEBEB"/>
<path d="M69.675 88.2542C69.675 88.2542 81.774 87.7472 82.462 98.1752C83.149 108.602 56.251 137.449 56.251 137.449C56.251 137.449 37.056 130.509 41.178 104.489C45.301 78.4692 66.669 81.8402 69.675 88.2542Z" fill="#EBEBEB"/>
<path d="M59.432 38.3411C59.432 38.3411 67.498 37.4751 66.849 32.5621C66.2 27.6481 35.492 15.0031 17.375 35.4511C17.375 35.4511 28.976 55.3781 45.746 55.6391C62.516 55.9001 59.432 38.3411 59.432 38.3411Z" fill="#EBEBEB"/>
<path d="M74.4632 26.409C74.4632 26.409 67.1592 29.941 65.1122 25.427C63.0652 20.914 82.4372 -6.059 108.629 1.713C108.629 1.713 109.323 24.761 95.2282 33.851C81.1342 42.942 74.4632 26.409 74.4632 26.409Z" fill="#EBEBEB"/>
<path d="M36.2721 103.103C36.2721 103.103 41.8391 98.608 35.8311 96.414C29.8231 94.22 0.344109 94.843 0.0371094 124.045C0.0371094 124.045 34.3711 129.75 38.6211 118.627C42.8711 107.504 36.2721 103.103 36.2721 103.103Z" fill="#EBEBEB"/>
<path d="M106.285 37.6088C106.285 37.6088 100.718 33.1139 106.726 30.9199C112.734 28.7259 142.213 29.3488 142.52 58.5508C142.52 58.5508 108.186 64.2568 103.936 53.1328C99.6862 42.0098 106.284 37.6088 106.284 37.6088H106.285Z" fill="#EBEBEB"/>
<path d="M88.1342 61.1323C88.1342 61.1323 87.6442 55.6683 92.0552 57.8103C96.4662 59.9523 111.834 76.5313 95.9042 92.2643C95.9042 92.2643 74.4602 76.3823 78.3252 68.1123C82.1902 59.8423 88.1332 61.1333 88.1332 61.1333L88.1342 61.1323Z" fill="#EBEBEB"/>
<path d="M31.2952 68.9182C31.2952 68.9182 34.6232 64.5572 29.7502 64.0172C24.8762 63.4762 3.03418 69.3061 8.12118 91.1111C8.12118 91.1111 34.7302 89.1111 35.8702 80.0531C37.0112 70.9951 31.2952 68.9182 31.2952 68.9182Z" fill="#EBEBEB"/>
<path d="M99.6191 234.023H45.9471L31.6711 168.174H112.54L99.6191 234.023Z" fill="#F0F0F0"/>
<path d="M117.198 167.221H26.802V186.157H117.198V167.221Z" fill="#E6E6E6"/>
</svg>
