<svg width="402" height="276" viewBox="0 0 402 276" fill="none" xmlns="http://www.w3.org/2000/svg">
<path d="M395.92 275.896H215.174C211.942 275.896 209.312 273.266 209.312 270.034V6.76044C209.312 3.52844 211.942 0.898438 215.174 0.898438H395.92C399.152 0.898438 401.782 3.52744 401.782 6.76044V270.033C401.782 273.266 399.152 275.895 395.92 275.895V275.896ZM215.174 1.14844C212.079 1.14844 209.562 3.66644 209.562 6.76044V270.033C209.562 273.128 212.08 275.645 215.174 275.645H395.92C399.015 275.645 401.532 273.127 401.532 270.033V6.76044C401.532 3.66644 399.014 1.14844 395.92 1.14844H215.174Z" fill="#E0E0E0"/>
<path d="M187.493 275.896H6.74603C3.51403 275.896 0.884033 273.266 0.884033 270.034V6.76044C0.884033 3.52844 3.51303 0.898438 6.74603 0.898438H187.493C190.725 0.898438 193.355 3.52744 193.355 6.76044V270.033C193.355 273.266 190.725 275.895 187.493 275.895V275.896ZM6.74603 1.14844C3.65203 1.14844 1.13403 3.66644 1.13403 6.76044V270.033C1.13403 273.128 3.65203 275.645 6.74603 275.645H187.493C190.588 275.645 193.105 273.127 193.105 270.033V6.76044C193.105 3.66644 190.587 1.14844 187.493 1.14844H6.74603Z" fill="#E0E0E0"/>
</svg>
