<svg width="43" height="44" viewBox="0 0 43 44" fill="none" xmlns="http://www.w3.org/2000/svg">
<path d="M32.7842 19.1232C32.1736 19.7375 31.706 20.4789 31.4147 21.2945C31.1235 22.1102 31.0157 22.98 31.099 23.8421L31.07 23.8131C31.1557 24.828 31.0187 25.8491 30.669 26.8056C30.3192 27.762 29.765 28.6305 29.045 29.3507C28.3248 30.0707 27.4562 30.6251 26.4997 30.9747C25.5434 31.3245 24.5221 31.4614 23.5074 31.3757L23.5364 31.4047C22.3226 31.2918 21.1035 31.5558 20.0451 32.1611C18.987 32.7664 18.1411 33.6833 17.6231 34.7869C17.1052 35.8905 16.94 37.1269 17.1504 38.3278C17.361 39.5286 17.9367 40.6352 18.7991 41.4969C19.6615 42.3585 20.7687 42.9332 21.9696 43.1424C23.1707 43.3519 24.4069 43.1856 25.51 42.6667C26.6131 42.1476 27.5292 41.3011 28.1336 40.2423C28.7379 39.1835 29.001 37.9642 28.8869 36.7504L28.9175 36.7794C28.8318 35.7647 28.9686 34.7434 29.3184 33.7869C29.6681 32.8305 30.2225 31.962 30.9425 31.2418C31.6627 30.5218 32.5312 29.9674 33.4876 29.6178C34.4441 29.268 35.4652 29.1311 36.4801 29.2168L36.4495 29.1878C37.4409 29.2769 38.439 29.1143 39.3511 28.7151C40.263 28.3159 41.0595 27.6929 41.6666 26.9039C42.2736 26.1149 42.6719 25.1853 42.824 24.2016C42.9762 23.2177 42.8776 22.2114 42.5374 21.2756C42.1971 20.3401 41.6261 19.5055 40.8774 18.8493C40.1288 18.1931 39.2265 17.7365 38.2544 17.5219C37.2822 17.3073 36.2716 17.3415 35.3162 17.6213C34.3608 17.9013 33.4916 18.4178 32.789 19.1232H32.7842Z" fill="#F5F5F5"/>
<path d="M20.8988 27.6056L20.8682 27.5766C21.7306 27.6635 22.6016 27.5576 23.4182 27.2666C24.2347 26.9757 24.9765 26.507 25.5897 25.8943C26.2027 25.2816 26.6722 24.5402 26.9636 23.7238C27.2553 22.9075 27.3618 22.0367 27.2756 21.1741L27.3062 21.2031C27.2205 20.1882 27.3574 19.1671 27.707 18.2106C28.0568 17.2542 28.6112 16.3857 29.3312 15.6655C30.0513 14.9455 30.9199 14.3911 31.8762 14.0415C32.8328 13.6917 33.8539 13.5548 34.8687 13.6405L34.8381 13.6115C36.0521 13.7256 37.2715 13.4623 38.3304 12.8577C39.3893 12.2531 40.2358 11.3366 40.7546 10.2332C41.2734 9.12978 41.4392 7.89321 41.2294 6.69211C41.0196 5.49101 40.4445 4.38389 39.5822 3.52172C38.7201 2.65956 37.6129 2.08433 36.4118 1.87453C35.2108 1.66472 33.9742 1.83052 32.8708 2.34933C31.7673 2.86812 30.8509 3.71468 30.2463 4.77352C29.6416 5.83234 29.3784 7.0519 29.4924 8.26584L29.4634 8.23523C29.5493 9.25005 29.4127 10.2714 29.0631 11.228C28.7135 12.1845 28.1591 13.0532 27.4391 13.7734C26.7189 14.4934 25.8502 15.0478 24.8937 15.3974C23.937 15.747 22.9157 15.8837 21.9009 15.7978L21.9299 15.8284C21.0675 15.7416 20.1963 15.8474 19.3798 16.1384C18.5633 16.4292 17.8216 16.898 17.2084 17.5107C16.5952 18.1234 16.1259 18.8649 15.8343 19.6812C15.5428 20.4976 15.4363 21.3684 15.5225 22.231L15.4935 22.202C15.5789 23.2166 15.4418 24.2378 15.092 25.1941C14.7421 26.1503 14.1879 27.0189 13.4679 27.7389C12.7478 28.4589 11.8793 29.0131 10.923 29.363C9.96675 29.7128 8.94564 29.8499 7.93095 29.7645L7.95995 29.7935C6.74601 29.6794 5.52644 29.9427 4.46761 30.5473C3.40878 31.152 2.56223 32.0684 2.04343 33.1718C1.52462 34.2753 1.35881 35.5118 1.56862 36.7129C1.77844 37.914 2.35367 39.0211 3.21582 39.8833C4.07799 40.7455 5.18511 41.3207 6.38621 41.5305C7.58731 41.7402 8.82389 41.5744 9.92729 41.0557C11.0307 40.5369 11.9472 39.6904 12.5518 38.6316C13.1564 37.5726 13.4197 36.3531 13.3056 35.1392L13.3362 35.1682C13.2505 34.1533 13.3875 33.1322 13.7372 32.1757C14.0868 31.2193 14.6412 30.3508 15.3612 29.6306C16.0814 28.9106 16.9499 28.3562 17.9063 28.0066C18.8628 27.6569 19.8839 27.5199 20.8988 27.6056Z" fill="#F5F5F5"/>
<path d="M10.1015 24.3733C10.7121 23.7592 11.1797 23.0177 11.4707 22.202C11.7617 21.3863 11.8691 20.5163 11.7851 19.6544L11.8157 19.6834C11.73 18.6684 11.8669 17.6468 12.2168 16.6901C12.5668 15.7334 13.1214 14.8647 13.8419 14.1445C14.5623 13.4244 15.4312 12.8702 16.3881 12.5207C17.3449 12.1711 18.3665 12.0347 19.3815 12.1208L19.3509 12.0918C20.5644 12.2055 21.7835 11.9421 22.8418 11.3376C23.9002 10.733 24.7462 9.81674 25.2648 8.71369C25.7833 7.61062 25.9489 6.3745 25.7391 5.17385C25.5293 3.9732 24.9542 2.8665 24.0924 2.00465C23.2306 1.1428 22.1238 0.567765 20.9232 0.357966C19.7226 0.148151 18.4864 0.313805 17.3834 0.832293C16.2803 1.35078 15.364 2.19689 14.7595 3.25523C14.1549 4.31357 13.8915 5.53263 14.0052 6.74615L13.9762 6.71715C14.0619 7.73191 13.925 8.75314 13.5752 9.70956C13.2254 10.666 12.6713 11.5345 11.9512 12.2547C11.2311 12.9748 10.3625 13.529 9.40607 13.8787C8.44965 14.2285 7.42843 14.3654 6.41367 14.2797L6.44267 14.3087C5.45114 14.2198 4.45321 14.3827 3.54135 14.7821C2.62949 15.1814 1.8332 15.8046 1.22628 16.5937C0.619358 17.3827 0.221445 18.3123 0.0693888 19.2961C-0.0826518 20.28 0.0160932 21.2863 0.356473 22.2217C0.696852 23.1572 1.26788 23.9916 2.01661 24.6477C2.76534 25.3039 3.66756 25.7603 4.63968 25.9749C5.61177 26.1894 6.62231 26.155 7.57765 25.8752C8.53297 25.5952 9.40217 25.0787 10.1047 24.3733H10.1015Z" fill="#F5F5F5"/>
</svg>
