<svg width="15" height="14" viewBox="0 0 15 14" fill="none" xmlns="http://www.w3.org/2000/svg">
<path d="M8.50924 2.04754L9.5359 4.10087C9.6759 4.38671 10.0492 4.66087 10.3642 4.71337L12.2251 5.02254C13.4151 5.22087 13.6951 6.08421 12.8376 6.93587L11.3909 8.38254C11.1459 8.62754 11.0117 9.10004 11.0876 9.43837L11.5017 11.2292C11.8284 12.6467 11.0759 13.195 9.82174 12.4542L8.07757 11.4217C7.76257 11.235 7.2434 11.235 6.92257 11.4217L5.1784 12.4542C3.93007 13.195 3.17174 12.6409 3.4984 11.2292L3.91257 9.43837C3.9884 9.10004 3.85424 8.62754 3.60924 8.38254L2.16257 6.93587C1.3109 6.08421 1.58507 5.22087 2.77507 5.02254L4.6359 4.71337C4.94507 4.66087 5.3184 4.38671 5.4584 4.10087L6.48507 2.04754C7.04507 0.933372 7.95507 0.933372 8.50924 2.04754Z" fill="#F59E0B"/>
</svg>
