<svg width="29" height="28" viewBox="0 0 29 28" fill="none" xmlns="http://www.w3.org/2000/svg">
<path d="M16.7049 3.36016L11.2332 2.49683C6.67158 1.78516 4.55991 3.32516 3.83658 7.88683L2.97324 13.3585C2.50658 16.3452 2.99658 18.2818 4.68824 19.4602C5.57491 20.0902 6.78824 20.5102 8.36324 20.7552L13.8349 21.6185C18.3966 22.3302 20.5082 20.7902 21.2316 16.2285L22.0832 10.7568C22.2232 9.8585 22.2816 9.0535 22.2349 8.34183C22.0832 5.42516 20.3682 3.93183 16.7049 3.36016ZM10.1132 10.9085C8.74824 10.9085 7.63991 9.80016 7.63991 8.44683C7.63991 7.08183 8.74824 5.9735 10.1132 5.9735C11.4666 5.9735 12.5749 7.08183 12.5749 8.44683C12.5749 9.80016 11.4666 10.9085 10.1132 10.9085Z" fill="#8B5CF6"/>
<path d="M24.4166 15.7152L22.6666 20.9768C21.2083 25.3635 18.8749 26.5302 14.4882 25.0718L9.22658 23.3218C7.58158 22.7735 6.39158 22.0968 5.62158 21.2452C6.35658 21.5368 7.20825 21.7585 8.17658 21.9102L13.6599 22.7735C14.4066 22.8902 15.1066 22.9485 15.7599 22.9485C19.6099 22.9485 21.6749 20.8718 22.3866 16.4035L23.2383 10.9318C23.3549 10.2551 23.4016 9.66015 23.4016 9.11182C25.1749 10.5701 25.4316 12.6468 24.4166 15.7152Z" fill="#8B5CF6"/>
</svg>
