<svg width="178" height="131" viewBox="0 0 178 131" fill="none" xmlns="http://www.w3.org/2000/svg">
<path d="M28.642 52.9572H0.979004V20.0312H23.441L28.642 25.4542V52.9572Z" fill="white"/>
<path d="M29.017 53.3322H0.60498V19.6562H23.602L29.018 25.3032V53.3322H29.017ZM1.35498 52.5822H28.267V25.6052L23.281 20.4062H1.35498V52.5822Z" fill="black"/>
<path d="M23.251 20.0312V25.4002L28.642 25.4542L23.251 20.0312Z" fill="white"/>
<path d="M28.642 25.8293H28.638L23.247 25.7753C23.041 25.7733 22.876 25.6063 22.876 25.4003V20.0303C22.876 19.8783 22.968 19.7413 23.108 19.6833C23.249 19.6263 23.41 19.6573 23.517 19.7663L28.908 25.1893C29.015 25.2973 29.047 25.4593 28.988 25.5993C28.929 25.7383 28.793 25.8293 28.642 25.8293ZM23.626 25.0293L27.731 25.0703L23.626 20.9403V25.0293Z" fill="black"/>
<path d="M23.0539 28.3828H6.56689V29.1328H23.0539V28.3828Z" fill="black"/>
<path d="M23.0539 30.7217H6.56689V31.4717H23.0539V30.7217Z" fill="black"/>
<path d="M16.2019 33.0605H6.56689V33.8105H16.2019V33.0605Z" fill="black"/>
<path d="M23.0539 35.3984H6.56689V36.1484H23.0539V35.3984Z" fill="black"/>
<path d="M23.0539 37.7383H6.56689V38.4883H23.0539V37.7383Z" fill="black"/>
<path d="M23.0539 40.0771H6.56689V40.8271H23.0539V40.0771Z" fill="black"/>
<path d="M23.0539 42.415H6.56689V43.165H23.0539V42.415Z" fill="black"/>
<path d="M14.8109 44.7539H6.56689V45.5039H14.8109V44.7539Z" fill="black"/>
<path d="M145.1 34.176H117.438V1.24902H139.899L145.1 6.67203V34.176Z" fill="white"/>
<path d="M145.475 34.55H117.063V0.874023H140.06L145.475 6.52103V34.55ZM117.813 33.8H144.725V6.82303L139.74 1.62402H117.813V33.8Z" fill="black"/>
<path d="M139.709 1.24902V6.61903L145.1 6.67203L139.709 1.24902Z" fill="white"/>
<path d="M145.1 7.04685H145.096L139.705 6.99385C139.5 6.99185 139.334 6.82485 139.334 6.61885V1.24884C139.334 1.09684 139.426 0.959843 139.566 0.901843C139.707 0.844843 139.869 0.876851 139.974 0.984851L145.365 6.40786C145.472 6.51585 145.504 6.67784 145.445 6.81784C145.386 6.95684 145.25 7.04685 145.099 7.04685H145.1ZM140.084 6.24785L144.189 6.28885L140.084 2.15885V6.24785Z" fill="black"/>
<path d="M139.512 9.60156H123.025V10.3516H139.512V9.60156Z" fill="black"/>
<path d="M139.512 11.9395H123.025V12.6895H139.512V11.9395Z" fill="black"/>
<path d="M132.66 14.2783H123.025V15.0283H132.66V14.2783Z" fill="black"/>
<path d="M139.512 16.6172H123.025V17.3672H139.512V16.6172Z" fill="black"/>
<path d="M139.512 18.957H123.025V19.707H139.512V18.957Z" fill="black"/>
<path d="M139.512 21.2949H123.025V22.0449H139.512V21.2949Z" fill="black"/>
<path d="M139.512 23.6338H123.025V24.3838H139.512V23.6338Z" fill="black"/>
<path d="M131.268 25.9717H123.025V26.7217H131.268V25.9717Z" fill="black"/>
<path d="M163.278 113.033H135.616V80.1074H158.077L163.278 85.5304V113.033Z" fill="white"/>
<path d="M163.653 113.408H135.24V79.7324H158.237L163.653 85.3794V113.408ZM135.99 112.658H162.903V85.6814L157.917 80.4824H135.99V112.658Z" fill="black"/>
<path d="M157.887 80.1074V85.4764L163.278 85.5304L157.887 80.1074Z" fill="white"/>
<path d="M163.278 85.9053H163.274L157.883 85.8513C157.678 85.8493 157.512 85.6823 157.512 85.4763V80.1063C157.512 79.9543 157.604 79.8173 157.744 79.7593C157.885 79.7023 158.046 79.7343 158.152 79.8423L163.543 85.2653C163.65 85.3733 163.682 85.5353 163.623 85.6753C163.564 85.8143 163.428 85.9043 163.277 85.9043L163.278 85.9053ZM158.262 85.1053L162.367 85.1463L158.262 81.0163V85.1053Z" fill="black"/>
<path d="M157.69 88.459H141.203V89.209H157.69V88.459Z" fill="black"/>
<path d="M157.69 90.7969H141.203V91.5469H157.69V90.7969Z" fill="black"/>
<path d="M150.838 93.1357H141.203V93.8857H150.838V93.1357Z" fill="black"/>
<path d="M157.69 95.4746H141.203V96.2246H157.69V95.4746Z" fill="black"/>
<path d="M157.69 97.8125H141.203V98.5625H157.69V97.8125Z" fill="black"/>
<path d="M157.69 100.152H141.203V100.902H157.69V100.152Z" fill="black"/>
<path d="M157.69 102.491H141.203V103.241H157.69V102.491Z" fill="black"/>
<path d="M149.447 104.829H141.203V105.579H149.447V104.829Z" fill="black"/>
<path d="M177.227 127.877H149.565V94.9512H172.027L177.227 100.374V127.877Z" fill="white"/>
<path d="M177.603 128.252H149.191V94.5762H172.188L177.603 100.223V128.252ZM149.941 127.502H176.853V100.525L171.868 95.3262H149.941V127.502Z" fill="black"/>
<path d="M171.837 94.9512V100.32L177.227 100.374L171.837 94.9512Z" fill="white"/>
<path d="M177.228 100.749H177.224L171.833 100.695C171.628 100.693 171.462 100.526 171.462 100.32V94.95C171.462 94.798 171.554 94.661 171.694 94.603C171.835 94.546 171.997 94.578 172.102 94.686L177.493 100.109C177.6 100.217 177.632 100.379 177.573 100.519C177.514 100.658 177.378 100.748 177.227 100.748L177.228 100.749ZM172.212 99.949L176.317 99.99L172.212 95.86V99.949Z" fill="black"/>
<path d="M171.639 103.303H155.152V104.053H171.639V103.303Z" fill="black"/>
<path d="M171.639 105.642H155.152V106.392H171.639V105.642Z" fill="black"/>
<path d="M164.787 107.979H155.152V108.729H164.787V107.979Z" fill="black"/>
<path d="M171.639 110.318H155.152V111.068H171.639V110.318Z" fill="black"/>
<path d="M171.639 112.658H155.152V113.408H171.639V112.658Z" fill="black"/>
<path d="M171.639 114.996H155.152V115.746H171.639V114.996Z" fill="black"/>
<path d="M171.639 117.335H155.152V118.085H171.639V117.335Z" fill="black"/>
<path d="M163.396 119.674H155.152V120.424H163.396V119.674Z" fill="black"/>
<path d="M109.843 130.216H82.1801V97.2891H104.642L109.843 102.712V130.216Z" fill="white"/>
<path d="M110.218 130.591H81.806V96.915H104.803L110.218 102.562V130.591ZM82.556 129.841H109.468V102.863L104.483 97.664H82.556V129.84V129.841Z" fill="black"/>
<path d="M104.452 97.2891V102.659L109.843 102.712L104.452 97.2891Z" fill="white"/>
<path d="M109.843 103.087H109.839L104.448 103.034C104.243 103.032 104.077 102.865 104.077 102.659V97.2889C104.077 97.1369 104.169 96.9999 104.309 96.9419C104.45 96.8849 104.612 96.9169 104.717 97.0249L110.108 102.448C110.215 102.556 110.247 102.718 110.188 102.858C110.129 102.997 109.994 103.087 109.843 103.087ZM104.827 102.288L108.932 102.329L104.827 98.1989V102.288Z" fill="black"/>
<path d="M104.256 105.642H87.7681V106.392H104.256V105.642Z" fill="black"/>
<path d="M104.256 107.979H87.7681V108.729H104.256V107.979Z" fill="black"/>
<path d="M97.4031 110.318H87.7681V111.068H97.4031V110.318Z" fill="black"/>
<path d="M104.256 112.657H87.7681V113.407H104.256V112.657Z" fill="black"/>
<path d="M104.256 114.996H87.7681V115.746H104.256V114.996Z" fill="black"/>
<path d="M104.256 117.335H87.7681V118.085H104.256V117.335Z" fill="black"/>
<path d="M104.256 119.674H87.7681V120.424H104.256V119.674Z" fill="black"/>
<path d="M96.0121 122.012H87.7681V122.762H96.0121V122.012Z" fill="black"/>
</svg>
