<svg width="284" height="340" viewBox="0 0 284 340" fill="none" xmlns="http://www.w3.org/2000/svg">
<path d="M276.993 0.46582H7.86304V226.632H276.993V0.46582Z" fill="#8B5CF6"/>
<path d="M246.731 31.7344H37.1851V194.325H246.731V31.7344Z" fill="#263238"/>
<path d="M214.725 226.632H75.13V249.212H214.725V226.632Z" fill="#8B5CF6"/>
<path d="M231.917 249.211H57.937V263.472H231.917V249.211Z" fill="#8B5CF6"/>
<path d="M283.592 263.472H0.323975V339.554H283.592V263.472Z" fill="#8B5CF6"/>
<path d="M121.295 290.858H9.22705V275.543H121.295V290.858ZM9.97705 290.108H120.545V276.293H9.97705V290.108Z" fill="#263238"/>
<path opacity="0.4" d="M117.872 294.698H105.242C103.559 294.698 102.194 296.063 102.194 297.746V298.171C102.194 299.855 103.559 301.219 105.242 301.219H117.872C119.555 301.219 120.92 299.855 120.92 298.171V297.746C120.92 296.063 119.555 294.698 117.872 294.698Z" fill="black"/>
<path opacity="0.4" d="M94.1099 300.925C95.7486 300.925 97.0769 299.597 97.0769 297.958C97.0769 296.32 95.7486 294.991 94.1099 294.991C92.4713 294.991 91.1429 296.32 91.1429 297.958C91.1429 299.597 92.4713 300.925 94.1099 300.925Z" fill="white"/>
<path opacity="0.4" d="M276.566 280.049H187.269V286.353H276.566V280.049Z" fill="black"/>
<path opacity="0.4" d="M276.566 291.72H259.827V297.675H276.566V291.72Z" fill="white"/>
<path opacity="0.4" d="M238.864 323.611C238.864 325.035 237.709 326.19 236.285 326.19C234.861 326.19 233.706 325.035 233.706 323.611C233.706 322.187 234.861 321.032 236.285 321.032C237.709 321.032 238.864 322.187 238.864 323.611Z" fill="black"/>
<path opacity="0.4" d="M245.838 323.611C245.838 325.035 244.683 326.19 243.259 326.19C241.835 326.19 240.68 325.035 240.68 323.611C240.68 322.187 241.835 321.032 243.259 321.032C244.683 321.032 245.838 322.187 245.838 323.611Z" fill="black"/>
<path opacity="0.4" d="M252.812 323.611C252.812 325.035 251.657 326.19 250.233 326.19C248.809 326.19 247.654 325.035 247.654 323.611C247.654 322.187 248.809 321.032 250.233 321.032C251.657 321.032 252.812 322.187 252.812 323.611Z" fill="black"/>
<path opacity="0.4" d="M260.32 317.934C263.455 314.799 268.538 314.799 271.674 317.934C274.809 321.069 274.809 326.153 271.674 329.288C268.539 332.423 263.456 332.423 260.32 329.288C257.185 326.153 257.185 321.07 260.32 317.934Z" fill="black"/>
<path opacity="0.4" d="M231.917 249.211H57.937V263.472H231.917V249.211Z" fill="black"/>
<path opacity="0.4" d="M12.167 315.537H11.417V325.885H12.167V315.537Z" fill="black"/>
<path opacity="0.4" d="M15.855 315.537H15.105V325.885H15.855V315.537Z" fill="black"/>
<path opacity="0.4" d="M19.5439 315.537H18.7939V325.885H19.5439V315.537Z" fill="black"/>
<path opacity="0.4" d="M23.2329 315.537H22.4829V325.885H23.2329V315.537Z" fill="black"/>
<path opacity="0.4" d="M26.9209 315.537H26.1709V325.885H26.9209V315.537Z" fill="black"/>
<path opacity="0.4" d="M30.6099 315.537H29.8599V325.885H30.6099V315.537Z" fill="black"/>
<path opacity="0.4" d="M34.2991 315.537H33.5491V325.885H34.2991V315.537Z" fill="black"/>
<path opacity="0.4" d="M37.9871 315.537H37.2371V325.885H37.9871V315.537Z" fill="black"/>
<path opacity="0.4" d="M41.676 315.537H40.926V325.885H41.676V315.537Z" fill="black"/>
<path opacity="0.4" d="M45.365 315.537H44.615V325.885H45.365V315.537Z" fill="black"/>
<path opacity="0.4" d="M49.053 315.537H48.303V325.885H49.053V315.537Z" fill="black"/>
<path opacity="0.4" d="M52.7419 315.537H51.9919V325.885H52.7419V315.537Z" fill="black"/>
<path opacity="0.4" d="M56.4309 315.537H55.6809V325.885H56.4309V315.537Z" fill="black"/>
<path opacity="0.4" d="M60.1199 315.537H59.3699V325.885H60.1199V315.537Z" fill="black"/>
<path opacity="0.4" d="M63.8079 315.537H63.0579V325.885H63.8079V315.537Z" fill="black"/>
<path opacity="0.4" d="M67.4971 315.537H66.7471V325.885H67.4971V315.537Z" fill="black"/>
<path opacity="0.4" d="M71.186 315.537H70.436V325.885H71.186V315.537Z" fill="black"/>
<path opacity="0.4" d="M74.874 315.537H74.124V325.885H74.874V315.537Z" fill="black"/>
<path opacity="0.4" d="M78.563 315.537H77.813V325.885H78.563V315.537Z" fill="black"/>
<path opacity="0.4" d="M82.251 315.537H81.501V325.885H82.251V315.537Z" fill="black"/>
<path opacity="0.4" d="M85.9399 315.537H85.1899V325.885H85.9399V315.537Z" fill="black"/>
<path opacity="0.4" d="M89.629 315.537H88.879V325.885H89.629V315.537Z" fill="black"/>
<path opacity="0.4" d="M93.317 315.537H92.567V325.885H93.317V315.537Z" fill="black"/>
<path opacity="0.4" d="M97.006 315.537H96.256V325.885H97.006V315.537Z" fill="black"/>
<path opacity="0.4" d="M100.695 315.537H99.9449V325.885H100.695V315.537Z" fill="black"/>
<path opacity="0.4" d="M104.384 315.537H103.634V325.885H104.384V315.537Z" fill="black"/>
<path opacity="0.4" d="M108.072 315.537H107.322V325.885H108.072V315.537Z" fill="black"/>
<path opacity="0.4" d="M111.761 315.537H111.011V325.885H111.761V315.537Z" fill="black"/>
<path opacity="0.4" d="M115.45 315.537H114.7V325.885H115.45V315.537Z" fill="black"/>
<path opacity="0.4" d="M119.138 315.537H118.388V325.885H119.138V315.537Z" fill="black"/>
<path opacity="0.4" d="M122.827 315.537H122.077V325.885H122.827V315.537Z" fill="black"/>
<path opacity="0.4" d="M75.13 226.632H214.724V234.241L75.175 233.954L75.13 226.632Z" fill="black"/>
<path opacity="0.4" d="M37.1849 194.325L29.2859 200.329H254.63L246.731 194.325H37.1849Z" fill="black"/>
<path opacity="0.4" d="M246.731 31.7345L254.63 24.2295H29.2859L37.1849 31.7345H246.731Z" fill="black"/>
<path opacity="0.4" d="M246.731 194.324L254.63 200.328V24.2295L246.731 31.7345V194.324Z" fill="white"/>
<path opacity="0.4" d="M37.1849 194.324L29.2859 200.328V24.2295L37.1849 31.7345V194.324Z" fill="white"/>
<path opacity="0.2" d="M44.99 36.8533C44.212 38.6043 39.346 184.561 44.99 187.48C50.634 190.399 236.509 191.567 240.194 189.815C243.879 188.063 243.167 40.5963 238.247 37.2833C232.505 33.4163 44.989 36.8523 44.989 36.8523L44.99 36.8533Z" fill="white"/>
<path d="M276.938 286.728H186.894V279.866H277.009L276.938 286.728ZM187.644 285.978H276.196L276.252 280.616H187.645L187.644 285.978Z" fill="#263238"/>
<path opacity="0.4" d="M283.592 308.945H0.323975V309.695H283.592V308.945Z" fill="black"/>
</svg>
