<svg width="146" height="55" viewBox="0 0 146 55" fill="none" xmlns="http://www.w3.org/2000/svg">
<path d="M145.361 0.796875H0.296997V54.2999H145.361V0.796875Z" fill="#8B5CF6"/>
<path opacity="0.7" d="M145.361 0.796875H0.296997V54.2999H145.361V0.796875Z" fill="white"/>
<path d="M145.361 0.796875H0.296997V10.7249H145.361V0.796875Z" fill="#8B5CF6"/>
<path d="M143.102 8.69623H135.152V1.65723H143.102V8.69623ZM135.902 7.94623H142.352V2.40723H135.902V7.94623Z" fill="black"/>
<path d="M140.604 3.16221L137.013 6.75977L137.544 7.29032L141.135 3.69276L140.604 3.16221Z" fill="black"/>
<path d="M137.535 3.15498L137.019 3.70117L140.828 7.29553L141.343 6.74933L137.535 3.15498Z" fill="black"/>
<path d="M11.731 28.9268H8.27795V39.4948H11.731V28.9268Z" fill="#8B5CF6"/>
<path d="M139.636 41.3438H6.02197V27.1738H139.635L139.636 41.3438ZM6.77296 40.5938H138.886V27.9238H6.77197L6.77296 40.5938Z" fill="black"/>
<path d="M17.5909 28.9268H14.1379V39.4948H17.5909V28.9268Z" fill="#8B5CF6"/>
<path d="M23.45 28.9268H19.9969V39.4948H23.45V28.9268Z" fill="#8B5CF6"/>
<path d="M29.309 28.9268H25.856V39.4948H29.309V28.9268Z" fill="#8B5CF6"/>
<path d="M35.1689 28.9268H31.7159V39.4948H35.1689V28.9268Z" fill="#8B5CF6"/>
<path d="M41.028 28.9268H37.575V39.4948H41.028V28.9268Z" fill="#8B5CF6"/>
<path d="M46.8879 28.9268H43.4349V39.4948H46.8879V28.9268Z" fill="#8B5CF6"/>
<path d="M52.7469 28.9268H49.2939V39.4948H52.7469V28.9268Z" fill="#8B5CF6"/>
<path d="M58.6069 28.9268H55.1539V39.4948H58.6069V28.9268Z" fill="#8B5CF6"/>
<path d="M64.4659 28.9268H61.0129V39.4948H64.4659V28.9268Z" fill="#8B5CF6"/>
<path d="M70.325 28.9268H66.8719V39.4948H70.325V28.9268Z" fill="#8B5CF6"/>
<path d="M76.1849 28.9268H72.7319V39.4948H76.1849V28.9268Z" fill="#8B5CF6"/>
<path d="M136.627 29.6758H8.55994V30.4258H136.627V29.6758Z" fill="white"/>
<path opacity="0.3" d="M135.526 8.32123V9.04623H143.424V2.03223H142.727V8.32123H135.526Z" fill="black"/>
<path opacity="0.3" d="M8.27795 40.9688V42.9438H140.872V27.5488H139.261V40.9688H8.27795Z" fill="black"/>
</svg>
