<svg width="29" height="28" viewBox="0 0 29 28" fill="none" xmlns="http://www.w3.org/2000/svg">
<path d="M20.9517 9.06516C20.87 9.0535 20.7884 9.0535 20.7067 9.06516C18.8984 9.00683 17.4634 7.52516 17.4634 5.70516C17.4634 3.85016 18.9684 2.3335 20.835 2.3335C22.69 2.3335 24.2067 3.8385 24.2067 5.70516C24.195 7.52516 22.76 9.00683 20.9517 9.06516Z" fill="#8B5CF6"/>
<path d="M24.755 17.15C23.4484 18.025 21.6167 18.3516 19.925 18.13C20.3684 17.1733 20.6017 16.1116 20.6134 14.9916C20.6134 13.825 20.3567 12.7166 19.8667 11.7483C21.5934 11.515 23.425 11.8416 24.7434 12.7166C26.5867 13.93 26.5867 15.925 24.755 17.15Z" fill="#8B5CF6"/>
<path d="M8.01335 9.06516C8.09502 9.0535 8.17669 9.0535 8.25835 9.06516C10.0667 9.00683 11.5017 7.52516 11.5017 5.70516C11.5017 3.8385 9.99669 2.3335 8.13002 2.3335C6.27502 2.3335 4.77002 3.8385 4.77002 5.70516C4.77002 7.52516 6.20502 9.00683 8.01335 9.06516Z" fill="#8B5CF6"/>
<path d="M8.14168 14.9919C8.14168 16.1235 8.38668 17.1969 8.83002 18.1652C7.18501 18.3402 5.47002 17.9902 4.21001 17.1619C2.36668 15.9369 2.36668 13.9419 4.21001 12.7169C5.45835 11.8769 7.22002 11.5385 8.87668 11.7252C8.39835 12.7052 8.14168 13.8135 8.14168 14.9919Z" fill="#8B5CF6"/>
<path d="M14.6401 18.515C14.5468 18.5033 14.4418 18.5033 14.3368 18.515C12.1901 18.445 10.4751 16.6833 10.4751 14.5133C10.4868 12.2967 12.2718 10.5 14.5001 10.5C16.7168 10.5 18.5134 12.2967 18.5134 14.5133C18.5018 16.6833 16.7984 18.445 14.6401 18.515Z" fill="#8B5CF6"/>
<path d="M10.8483 20.9301C9.08668 22.1084 9.08668 24.0451 10.8483 25.2117C12.855 26.5534 16.145 26.5534 18.1517 25.2117C19.9134 24.0334 19.9134 22.0967 18.1517 20.9301C16.1567 19.5884 12.8667 19.5884 10.8483 20.9301Z" fill="#8B5CF6"/>
</svg>
